# xmcd CD database file
#
# Track frame offsets:
#	150
#	14670
#	33017
#	44237
#	58057
#	72952
#	89552
#	110232
#	127340
#	139275
#	157837
#	172700
#
# Disc length: 2533 seconds
#
# Revision: 0
# Processed by: cddbd v1.5.1PL2 Copyright (c) Steve Scherf et al.
# Submitted via: CDex 1.60beta1
#
DISCID=b009e30c
DTITLE=Betty Roche - Take The A Train
DYEAR=1956
DGENRE=Jazz
TTITLE0=Take The A Train
TTITLE1=Something To Live For
TTITLE2=In A Mellow Tone
TTITLE3=Time After Time
TTITLE4=Go Away Blues
TTITLE5=Can't Help Lovin' Dat Man
TTITLE6=Route 66
TTITLE7=All My Life
TTITLE8=I Just Got The Message, Baby
TTITLE9=All Too Soon
TTITLE10=You Don't Love Me No More
TTITLE11=September In The Rain
EXTD=YEAR: 1956
EXTT0=
EXTT1=
EXTT2=
EXTT3=
EXTT4=
EXTT5=
EXTT6=
EXTT7=
EXTT8=
EXTT9=
EXTT10=
EXTT11=
PLAYORDER=
